<svg viewBox="0 0 512 512" xmlns="http://www.w3.org/2000/svg" fill-rule="evenodd" clip-rule="evenodd" stroke-linejoin="round" stroke-miterlimit="2"><path d="M11 256.016C11 121.986 120.68 13.37 256.018 13.37c135.324 0 244.975 108.615 244.975 242.645 0 117.245-83.936 215.06-195.572 237.697-15.95 3.236-32.475 4.919-49.346 4.919H11v-242.63.014z" fill="#027e6f" fill-rule="nonzero"/><path d="M425.543 233.033H315.129l-25.988 44.6h91.026c-14.268 77.563-101.367 130.376-188.424 85.704-18.711-9.593-33.957-24.421-43.809-42.96-50.079-94.42 18.338-189.416 108.616-189.416 37.222 0 70.733 16.137 93.759 41.723l23.328-40.011c-33.238-31.167-79.103-49.303-129.125-45.823C159.34 92.675 90.29 162.573 86.148 246.998c-4.718 96.923 73.508 177.234 170.345 177.234 96.822 0 170.574-75.81 170.574-168.95 0-7.565-.575-14.986-1.539-22.25h.015z" fill="#fff" fill-rule="nonzero"/></svg>